<?xml version="1.0" encoding="UTF-8" standalone="no"?> <svg id="Layer_1" data-name="Layer 1" xmlns="http://www.w3.org/2000/svg" viewBox="0 0 128 128"><defs><style>.cls-1{fill:#2d3e50;}.cls-2{fill:#2e79bd;}</style></defs><title>b</title><path class="cls-1" d="M119.76263,61.22178H8.23737a3.38158,3.38158,0,0,0-3.38064,3.38064V87.86832A3.38162,3.38162,0,0,0,8.23737,91.249H119.76522a3.37717,3.37717,0,0,0,3.37805-3.3781V64.60242A3.38158,3.38158,0,0,0,119.76263,61.22178ZM33.43179,86.5896H28.77238V65.88114h4.65941Zm65.79842,0H94.57085V65.88114h4.65936Z"/><path class="cls-1" d="M119.76263,97.25962H8.23737a3.38158,3.38158,0,0,0-3.38064,3.38064v23.266a3.38161,3.38161,0,0,0,3.38064,3.38064H119.76263a3.38161,3.38161,0,0,0,3.38064-3.38064v-23.266A3.38158,3.38158,0,0,0,119.76263,97.25962ZM56.54237,122.62745H51.883V101.919h4.65936Zm11.41292-5.45407H63.29593v-8.80885h4.65936Zm19.862,0H83.15788v-8.80885h4.65941Zm11.41292,5.45407H94.57085V101.919h4.65936Z"/><path class="cls-2" d="M50.76672,50.0234A9.86409,9.86409,0,0,0,55.19609,53.964a5.01488,5.01488,0,0,0,1.90546.49385A8.68562,8.68562,0,0,0,60.663,53.16254a6.49526,6.49526,0,0,1,6.67405,0,8.68562,8.68562,0,0,0,3.56143,1.29527,5.01469,5.01469,0,0,0,1.90546-.49385,9.86409,9.86409,0,0,0,4.42936-3.94056l7.29754-12.04774a12.17606,12.17606,0,0,0,1.69759-8.02082,11.83042,11.83042,0,0,0-.53209-2.19806,15.23439,15.23439,0,0,0-9.68842-9.48722,8.98637,8.98637,0,0,0-3.95053-.35582,8.82724,8.82724,0,0,0-2.32441.64175c-1.0658.45895-1.9437,1.262-3.03773,1.66769a7.90169,7.90169,0,0,1-5.39046,0c-1.094-.40569-1.97193-1.20874-3.03773-1.66769a8.8274,8.8274,0,0,0-2.32437-.64175,8.98651,8.98651,0,0,0-3.95057.35582,15.23439,15.23439,0,0,0-9.68842,9.48722,11.83031,11.83031,0,0,0-.532,2.19806,12.17554,12.17554,0,0,0,1.69759,8.02082Z"/><path class="cls-2" d="M48.54912,2.74065a42.87863,42.87863,0,0,1,3.81808,4.012c.53981.64333,1.04244,1.38338,1.5758,2.10183A8.688,8.688,0,0,0,56.64813,11.472a4.03016,4.03016,0,0,0,3.47977.14154,4.56864,4.56864,0,0,0,2.54164-5.43914,6.7025,6.7025,0,0,0-4.05743-4.15651,13.84606,13.84606,0,0,0-2.04292-.70791A17.96091,17.96091,0,0,0,53.11779.756a13.5307,13.5307,0,0,0-5.97158.75735C47.325,1.446,48.42018,2.62484,48.54912,2.74065Z"/><path class="cls-2" d="M64.07887,18.44579a2.017,2.017,0,0,0,.3254.02665,1.99593,1.99593,0,0,0,1.96648-1.67261,23.71383,23.71383,0,0,1,3.75451-9.36509A1.99519,1.99519,0,1,0,66.80656,5.219,27.67621,27.67621,0,0,0,62.43291,16.1539,1.99529,1.99529,0,0,0,64.07887,18.44579Z"/></svg>