<?xml version="1.0" encoding="iso-8859-1"?>
<!-- Generator: Adobe Illustrator 19.0.0, SVG Export Plug-In . SVG Version: 6.00 Build 0)  -->
<svg version="1.1" id="Capa_1" xmlns="http://www.w3.org/2000/svg" xmlns:xlink="http://www.w3.org/1999/xlink" x="0px" y="0px"
	 viewBox="0 0 512 512" style="enable-background:new 0 0 512 512;" xml:space="preserve">
<path style="fill:#FE9923;" d="M512,240l-34.2,60H34.2L0,240L48.6,45.3C55.201,18.6,79.2,0,106.8,0h298.4
	c27.599,0,51.599,18.6,58.2,45.3L512,240z"/>
<path style="fill:#FE8821;" d="M512,240l-34.2,60H256V0h149.2c27.599,0,51.599,18.6,58.2,45.3L512,240z"/>
<path style="fill:#BF6015;" d="M51.621,270l-19.6-34.409L77.725,52.559C81.006,39.243,92.959,30,106.787,30h298.426
	c13.828,0,25.781,9.243,29.063,22.485l45.703,183.105l-19.6,34.41H51.621z"/>
<path style="fill:#994C0F;" d="M256,270h204.379l19.6-34.409L434.275,52.485C430.994,39.243,419.041,30,405.213,30H256V270z"/>
<path style="fill:#A4D9F5;" d="M377,60H135c-8.401,0-15,6.599-15,15v60c0,8.399,6.599,15,15,15h242c8.401,0,15-6.601,15-15V75
	C392,66.599,385.401,60,377,60z"/>
<path style="fill:#81C8EE;" d="M377,150H256V60h121c8.401,0,15,6.599,15,15v60C392,143.399,385.401,150,377,150z"/>
<path style="fill:#B7E0F6;" d="M407,120H105c-8.401,0-15,6.599-15,15v60c0,8.399,6.599,15,15,15h302c8.401,0,15-6.601,15-15v-60
	C422,126.599,415.401,120,407,120z"/>
<path style="fill:#A4D9F5;" d="M407,210H256v-90h151c8.401,0,15,6.599,15,15v60C422,203.399,415.401,210,407,210z"/>
<path style="fill:#CAE8F9;" d="M452,195v90c0,8.399-6.599,15-15,15H75c-8.401,0-15-6.601-15-15v-90c0-8.401,6.599-15,15-15h362
	C445.401,180,452,186.599,452,195z"/>
<path style="fill:#B7E0F6;" d="M452,195v90c0,8.399-6.599,15-15,15H256V180h181C445.401,180,452,186.599,452,195z"/>
<path style="fill:#BF6015;" d="M286,330h-60c-41.353,0-76-33.647-76-75c0-8.291,7.709-15,16-15h180c8.291,0,16,6.709,16,15
	c0,20.259-8.896,39.097-23.236,53.057C325.067,322.104,306.229,330,286,330z"/>
<path style="fill:#994C0F;" d="M346,240h-90v90h30c20.229,0,39.067-7.896,52.764-21.943C353.104,294.097,362,275.259,362,255
	C362,246.709,354.291,240,346,240z"/>
<path style="fill:#FEDB41;" d="M331,240v15c0,24.787-20.606,45-45,45c-3.697,0-63.704,0-60,0c-23.83,0-45-19.723-45-45v-15H0v167
	h512V240H331z"/>
<path style="fill:#FCBF29;" d="M331,255c0,24.787-20.605,45-45,45c-1.734,0-15.877,0-30,0v107h256V240H331V255z"/>
<path style="fill:#BF6015;" d="M286,467h-60c-41.353,0-76-33.647-76-75c0-8.291,7.709-15,16-15h180c8.291,0,16,6.709,16,15
	c0,20.259-8.896,39.097-23.236,53.057C325.067,459.104,306.229,467,286,467z"/>
<path style="fill:#994C0F;" d="M346,377h-90v90h30c20.229,0,39.067-7.896,52.764-21.943C353.104,431.097,362,412.259,362,392
	C362,383.709,354.291,377,346,377z"/>
<path style="fill:#FE9923;" d="M331,377v15c0,23.947-19.635,45-45,45h-15h-30h-15c-24.358,0-45-20.172-45-45v-15H0v90
	c0,24.853,20.147,45,45,45h422c24.853,0,45-20.147,45-45v-90H331z"/>
<path style="fill:#FE8821;" d="M331,392c0,23.947-19.634,45-45,45h-15h-15v75h211c24.853,0,45-20.147,45-45v-90H331V392z"/>
<g>
</g>
<g>
</g>
<g>
</g>
<g>
</g>
<g>
</g>
<g>
</g>
<g>
</g>
<g>
</g>
<g>
</g>
<g>
</g>
<g>
</g>
<g>
</g>
<g>
</g>
<g>
</g>
<g>
</g>
</svg>
