<svg xmlns="http://www.w3.org/2000/svg" viewBox="0 0 200 100"><defs><style>.a,.e{fill:#fff;}.b,.h{fill:none;}.b,.c,.d,.e{stroke:#707070;stroke-width:2px;}.b,.c{stroke-linecap:round;}.c,.d{fill:rgba(0,0,0,0);}.f{fill:#707070;font-size:16px;font-family:SegoeUI, Segoe UI;}.g{stroke:none;}</style></defs><g transform="translate(-511 -170)"><rect class="a" width="200" height="100" rx="4" transform="translate(511 170)"/><line class="b" x2="36" transform="translate(593.5 195.5)"/><path class="c" d="M0,1.828H46" transform="translate(595.328 195.5) rotate(90)"/><path class="d" d="M14,0" transform="translate(599.5 217.5)"/><path class="d" d="M12,0" transform="translate(599.5 229.5)"/><line class="b" x2="36" transform="translate(593.5 232.5)"/><g class="e" transform="translate(597 204.5)"><circle class="g" cx="7" cy="7" r="7"/><circle class="h" cx="7" cy="7" r="6"/></g><path class="d" d="M0,6H10.764L16.438.741l7.036,3.833L28.808-6.387,36,0" transform="translate(593.5 219.5)"/><path class="c" d="M0,0H36" transform="translate(593.5 241.5)"/><line class="b" y1="46" transform="translate(629.5 195.5)"/><text class="f" transform="translate(611 258)"><tspan x="-26.512" y="0">Imagen</tspan></text></g></svg>