<svg height="512" viewBox="0 0 64 64" width="512" xmlns="http://www.w3.org/2000/svg"><g id="flat"><path d="m21 3h36a0 0 0 0 1 0 0v20a0 0 0 0 1 0 0h-36a10 10 0 0 1 -10-10 10 10 0 0 1 10-10z" fill="#ad6327"/><path d="m21 7h36a0 0 0 0 1 0 0v12a0 0 0 0 1 0 0h-36a6 6 0 0 1 -6-6 6 6 0 0 1 6-6z" fill="#f4f4e6"/><path d="m52 61h-49l2-3-2-3h49a3 3 0 0 1 3 3 3 3 0 0 1 -3 3z" fill="#ffd782"/><path d="m13 49h36v6h-36z" fill="#96c3f0"/><path d="m8 43h48a0 0 0 0 1 0 0v6a0 0 0 0 1 0 0h-48a3 3 0 0 1 -3-3 3 3 0 0 1 3-3z" fill="#ad6327"/><path d="m55 43h-41l2-6-2-6h41a6 6 0 0 1 6 6 6 6 0 0 1 -6 6z" fill="#ffd782"/><path d="m51 31h-44a4 4 0 0 1 -4-4 4 4 0 0 1 4-4h44z" fill="#96c3f0"/><path d="m20 10h34v2h-34z" fill="#4f97d5"/><path d="m19 14h35v2h-35z" fill="#4f97d5"/><path d="m18 34h38v2h-38z" fill="#f4f4e6"/><path d="m18 38h38v2h-38z" fill="#f4f4e6"/><path d="m46 49-6 6-6-6z" fill="#da1c4b"/><path d="m49 49h9a3 3 0 0 1 3 3 3 3 0 0 1 -3 3h-9a0 0 0 0 1 0 0v-6a0 0 0 0 1 0 0z" fill="#2d75bb"/><path d="m6 26h45v2h-45z" fill="#2d75bb"/><g fill="#da1c4b"><path d="m52 7-10 10-10-10z"/><path d="m18 31 9 9 9-9z"/></g></g></svg>