<svg height="426pt" viewBox="-42 0 426 426.66667" width="426pt" xmlns="http://www.w3.org/2000/svg"><path d="m325.667969 229.332031h-309.335938c-8.832031 0-16-7.167969-16-16s7.167969-16 16-16h309.335938c8.832031 0 16 7.167969 16 16s-7.167969 16-16 16zm0 0"/><path d="m171 426.667969c-70.59375 0-128-51.4375-128-114.667969 0-8.832031 7.167969-16 16-16s16 7.167969 16 16c0 45.589844 43.070312 82.667969 96 82.667969s96-37.078125 96-82.667969-43.070312-82.667969-96-82.667969c-70.59375 0-128-51.433593-128-114.664062 0-63.234375 57.40625-114.667969 128-114.667969s128 51.433594 128 114.667969c0 8.832031-7.167969 16-16 16s-16-7.167969-16-16c0-45.589844-43.070312-82.667969-96-82.667969s-96 37.078125-96 82.667969c0 45.589843 43.070312 82.664062 96 82.664062 70.59375 0 128 51.4375 128 114.667969s-57.40625 114.667969-128 114.667969zm0 0"/></svg>